# xmcd
#
# Track frame offsets: 
#        150
#        16445
#        38365
#        53877
#        68840
#        84065
#        95672
#        112517
#        130404
#        143192
#        160300
#        173134
#        186672
#        203740
#        221727
#        236262
#        259812
#        276047
#        285670
#        297995
#
# Disc length: 4277 seconds
#
# Revision: 4
# Processed by: cddbd v1.5.2PL0 Copyright (c) Steve Scherf et al.
# Submitted via: ExactAudioCopy v0.95b4
#
DISCID=2010b314
DTITLE=Conway Twitty - The Conway Twitty Collection [CD4]
DYEAR=1994
DGENRE=Country
TTITLE0=I Want to Know You Before We Make Love
TTITLE1=That's My Job
TTITLE2=Goodbye Time
TTITLE3=Saturday Night Special
TTITLE4=(I Wish I Was) Still in Your Dreams
TTITLE5=I Can't Help It (If I'm Still in Love with You) (with Loretta 
TTITLE5=Lynn)
TTITLE6=She's Got a Single Thing in Mind
TTITLE7=House on Old Lonesome Road
TTITLE8=Who's Gonna Know
TTITLE9=Crazy in Love
TTITLE10=I Couldn't See You Leavin'
TTITLE11=She's Got a Man on Her Mind
TTITLE12=Who Did They Think He Was
TTITLE13=I'm the Only Thing (I'll Hold Against You)
TTITLE14=Don't It Make You Lonely
TTITLE15=Rainy Night in Georgia (with Sam Moore)
TTITLE16=I Will Always Find My Way to You
TTITLE17=Sweet Sweet Spirit
TTITLE18=Clinging to a Saving Hand
TTITLE19=Why Me Lord (live version)
EXTD=
EXTT0=
EXTT1=
EXTT2=
EXTT3=
EXTT4=
EXTT5=
EXTT6=
EXTT7=
EXTT8=
EXTT9=
EXTT10=
EXTT11=
EXTT12=
EXTT13=
EXTT14=
EXTT15=
EXTT16=Previously Unreleased
EXTT17=Previously Unreleased
EXTT18=
EXTT19=Live Version\nPreviously Unreleased
PLAYORDER=
